<mxfile host="app.diagrams.net" agent="Mozilla/5.0 (Windows NT 10.0; Win64; x64) AppleWebKit/537.36 (KHTML, like Gecko) Chrome/126.0.0.0 Safari/537.36" version="24.7.4">
  <diagram name="PÃ¡gina-1" id="7hPDVgxM0gWnpoI4ZabL">
    <mxGraphModel dx="1434" dy="772" grid="1" gridSize="10" guides="1" tooltips="1" connect="1" arrows="1" fold="1" page="1" pageScale="1" pageWidth="827" pageHeight="1169" math="0" shadow="0">
      <root>
        <mxCell id="0" />
        <mxCell id="1" parent="0" />
        <mxCell id="A7TIRRrw4qe8FW4tdA8x-3" style="edgeStyle=orthogonalEdgeStyle;rounded=0;orthogonalLoop=1;jettySize=auto;html=1;exitX=0.5;exitY=1;exitDx=0;exitDy=0;entryX=0.5;entryY=0;entryDx=0;entryDy=0;" edge="1" parent="1" source="A7TIRRrw4qe8FW4tdA8x-1" target="A7TIRRrw4qe8FW4tdA8x-2">
          <mxGeometry relative="1" as="geometry" />
        </mxCell>
        <mxCell id="A7TIRRrw4qe8FW4tdA8x-1" value="Start" style="rounded=1;whiteSpace=wrap;html=1;fillColor=#d5e8d4;strokeColor=#82b366;" vertex="1" parent="1">
          <mxGeometry x="360" y="40" width="120" height="40" as="geometry" />
        </mxCell>
        <mxCell id="A7TIRRrw4qe8FW4tdA8x-16" style="edgeStyle=orthogonalEdgeStyle;rounded=0;orthogonalLoop=1;jettySize=auto;html=1;exitX=0.5;exitY=1;exitDx=0;exitDy=0;" edge="1" parent="1" source="A7TIRRrw4qe8FW4tdA8x-2" target="A7TIRRrw4qe8FW4tdA8x-15">
          <mxGeometry relative="1" as="geometry" />
        </mxCell>
        <mxCell id="A7TIRRrw4qe8FW4tdA8x-2" value="SAS" style="rounded=1;whiteSpace=wrap;html=1;fillColor=#dae8fc;strokeColor=#6c8ebf;" vertex="1" parent="1">
          <mxGeometry x="360" y="120" width="120" height="40" as="geometry" />
        </mxCell>
        <mxCell id="A7TIRRrw4qe8FW4tdA8x-4" value="" style="rounded=1;whiteSpace=wrap;html=1;strokeColor=default;fontColor=#FFFFFF;" vertex="1" parent="1">
          <mxGeometry x="480" y="400" width="40" height="40" as="geometry" />
        </mxCell>
        <mxCell id="A7TIRRrw4qe8FW4tdA8x-5" value="" style="rounded=1;whiteSpace=wrap;html=1;strokeColor=default;fontColor=#FFFFFF;" vertex="1" parent="1">
          <mxGeometry x="320" width="40" height="40" as="geometry" />
        </mxCell>
        <mxCell id="A7TIRRrw4qe8FW4tdA8x-8" value="" style="rounded=1;whiteSpace=wrap;html=1;strokeColor=#6c8ebf;arcSize=50;fillColor=#dae8fc;" vertex="1" parent="1">
          <mxGeometry x="365" y="330" width="20" height="20" as="geometry" />
        </mxCell>
        <mxCell id="A7TIRRrw4qe8FW4tdA8x-10" value="" style="rounded=1;whiteSpace=wrap;html=1;strokeColor=#82b366;arcSize=50;fillColor=#d5e8d4;" vertex="1" parent="1">
          <mxGeometry x="365" y="290" width="20" height="20" as="geometry" />
        </mxCell>
        <mxCell id="A7TIRRrw4qe8FW4tdA8x-11" value="" style="rounded=1;whiteSpace=wrap;html=1;strokeColor=#666666;arcSize=50;fillColor=#f5f5f5;fontColor=#333333;" vertex="1" parent="1">
          <mxGeometry x="365" y="370" width="20" height="20" as="geometry" />
        </mxCell>
        <mxCell id="A7TIRRrw4qe8FW4tdA8x-12" value="Completed" style="text;html=1;align=left;verticalAlign=middle;whiteSpace=wrap;rounded=0;" vertex="1" parent="1">
          <mxGeometry x="395" y="280" width="80" height="40" as="geometry" />
        </mxCell>
        <mxCell id="A7TIRRrw4qe8FW4tdA8x-13" value="In progress" style="text;html=1;align=left;verticalAlign=middle;whiteSpace=wrap;rounded=0;" vertex="1" parent="1">
          <mxGeometry x="395" y="320" width="80" height="40" as="geometry" />
        </mxCell>
        <mxCell id="A7TIRRrw4qe8FW4tdA8x-14" value="Next step" style="text;html=1;align=left;verticalAlign=middle;whiteSpace=wrap;rounded=0;" vertex="1" parent="1">
          <mxGeometry x="395" y="360" width="80" height="40" as="geometry" />
        </mxCell>
        <mxCell id="A7TIRRrw4qe8FW4tdA8x-15" value="Python" style="rounded=1;whiteSpace=wrap;html=1;fillColor=#f5f5f5;strokeColor=#666666;fontColor=#333333;" vertex="1" parent="1">
          <mxGeometry x="360" y="200" width="120" height="40" as="geometry" />
        </mxCell>
      </root>
    </mxGraphModel>
  </diagram>
</mxfile>
